<?xml version="1.0" standalone="no"?><svg xmlns="http://www.w3.org/2000/svg" viewBox="0 0 1440 320"><path fill="#2f1604" fill-opacity="2" d="M0,32L0,192L36.9,192L36.9,64L73.8,64L73.8,320L110.8,320L110.8,32L147.7,32L147.7,192L184.6,192L184.6,96L221.5,96L221.5,160L258.5,160L258.5,320L295.4,320L295.4,288L332.3,288L332.3,288L369.2,288L369.2,192L406.2,192L406.2,192L443.1,192L443.1,128L480,128L480,0L516.9,0L516.9,224L553.8,224L553.8,128L590.8,128L590.8,64L627.7,64L627.7,160L664.6,160L664.6,64L701.5,64L701.5,224L738.5,224L738.5,96L775.4,96L775.4,256L812.3,256L812.3,320L849.2,320L849.2,160L886.2,160L886.2,0L923.1,0L923.1,128L960,128L960,288L996.9,288L996.9,64L1033.8,64L1033.8,160L1070.8,160L1070.8,256L1107.7,256L1107.7,96L1144.6,96L1144.6,32L1181.5,32L1181.5,160L1218.5,160L1218.5,96L1255.4,96L1255.4,224L1292.3,224L1292.3,192L1329.2,192L1329.2,192L1366.2,192L1366.2,64L1403.1,64L1403.1,96L1440,96L1440,320L1403.1,320L1403.1,320L1366.2,320L1366.2,320L1329.2,320L1329.2,320L1292.3,320L1292.3,320L1255.4,320L1255.4,320L1218.5,320L1218.5,320L1181.5,320L1181.5,320L1144.6,320L1144.6,320L1107.7,320L1107.7,320L1070.8,320L1070.8,320L1033.8,320L1033.8,320L996.9,320L996.9,320L960,320L960,320L923.1,320L923.1,320L886.2,320L886.2,320L849.2,320L849.2,320L812.3,320L812.3,320L775.4,320L775.4,320L738.5,320L738.5,320L701.5,320L701.5,320L664.6,320L664.6,320L627.7,320L627.7,320L590.8,320L590.8,320L553.8,320L553.8,320L516.9,320L516.9,320L480,320L480,320L443.1,320L443.1,320L406.2,320L406.2,320L369.2,320L369.2,320L332.3,320L332.3,320L295.4,320L295.4,320L258.5,320L258.5,320L221.5,320L221.5,320L184.6,320L184.6,320L147.7,320L147.7,320L110.8,320L110.8,320L73.8,320L73.8,320L36.9,320L36.9,320L0,320L0,320Z"></path></svg>